<?xml version="1.0" standalone="no"?><!DOCTYPE svg PUBLIC "-//W3C//DTD SVG 1.1//EN" "http://www.w3.org/Graphics/SVG/1.1/DTD/svg11.dtd"><svg t="1627378829270" class="icon" viewBox="0 0 1024 1024" version="1.1" xmlns="http://www.w3.org/2000/svg" p-id="5450" xmlns:xlink="http://www.w3.org/1999/xlink" width="200" height="200"><defs><style type="text/css">@font-face { font-family: feedback-iconfont; src: url("//at.alicdn.com/t/font_1031158_1uhr8ri0pk5.eot?#iefix") format("embedded-opentype"), url("//at.alicdn.com/t/font_1031158_1uhr8ri0pk5.woff2") format("woff2"), url("//at.alicdn.com/t/font_1031158_1uhr8ri0pk5.woff") format("woff"), url("//at.alicdn.com/t/font_1031158_1uhr8ri0pk5.ttf") format("truetype"), url("//at.alicdn.com/t/font_1031158_1uhr8ri0pk5.svg#iconfont") format("svg"); }
</style></defs><path d="M696.32 478.3c-25.45 0-46.08 20.62-46.08 46.08v92.16c0 25.45 20.63 46.08 46.08 46.08 25.44 0 46.07-20.62 46.08-46.08v-92.16c0-25.46-20.63-46.08-46.08-46.08zM327.68 478.3c-25.45 0-46.08 20.62-46.08 46.08v92.16c0 25.45 20.63 46.08 46.08 46.08 25.44 0 46.08-20.62 46.08-46.08v-92.16c0-12.21-4.86-23.94-13.49-32.58a46.08 46.08 0 0 0-32.59-13.5z" p-id="5451" fill="#B8B8B8"></path><path d="M925.56 295.13a161.274 161.274 0 0 0-114.04-47.24H715.4l84.28-84.19c18.01-18.01 18.01-47.2 0-65.21-18-18.01-47.2-18.01-65.2 0L585.04 247.9H438.92L289.53 98.46v-0.05c-18.01-18-47.2-18-65.21 0-18 18.01-18 47.2 0 65.21l84.23 84.28h-96.08A161.274 161.274 0 0 0 51.2 409.18v368.64c0 42.78 16.99 83.79 47.24 114.04a161.299 161.299 0 0 0 114.04 47.24h599.04c42.77 0 83.8-16.99 114.04-47.24a161.316 161.316 0 0 0 47.24-114.04V409.18c0-42.78-17-83.8-47.24-114.05z m-44.92 482.68l-0.32 6.63c-3.42 35.44-33.2 62.49-68.8 62.49H212.48l-6.63-0.33c-35.43-3.41-62.48-33.19-62.48-68.79V409.18l0.32-6.64c3.42-35.44 33.2-62.48 68.8-62.48h599.04c38.17 0 69.12 30.94 69.12 69.12v368.63z" p-id="5452" fill="#B8B8B8"></path></svg>