<?xml version="1.0" standalone="no"?><!DOCTYPE svg PUBLIC "-//W3C//DTD SVG 1.1//EN" "http://www.w3.org/Graphics/SVG/1.1/DTD/svg11.dtd"><svg t="1627379054344" class="icon" viewBox="0 0 1024 1024" version="1.1" xmlns="http://www.w3.org/2000/svg" p-id="8888" xmlns:xlink="http://www.w3.org/1999/xlink" width="200" height="200"><defs><style type="text/css">@font-face { font-family: feedback-iconfont; src: url("//at.alicdn.com/t/font_1031158_1uhr8ri0pk5.eot?#iefix") format("embedded-opentype"), url("//at.alicdn.com/t/font_1031158_1uhr8ri0pk5.woff2") format("woff2"), url("//at.alicdn.com/t/font_1031158_1uhr8ri0pk5.woff") format("woff"), url("//at.alicdn.com/t/font_1031158_1uhr8ri0pk5.ttf") format("truetype"), url("//at.alicdn.com/t/font_1031158_1uhr8ri0pk5.svg#iconfont") format("svg"); }
</style></defs><path d="M843.09 155.63H180.91A117.23 117.23 0 0 0 63.65 272.9v478.2a117.26 117.26 0 0 0 117.26 117.27h662.18A117.26 117.26 0 0 0 960.35 751.1V272.9a117.23 117.23 0 0 0-117.26-117.27z m-662.18 69h662.18a48.29 48.29 0 0 1 48.29 48.29v39.76a34.21 34.21 0 0 0-8.22 2.78L521.05 492.19a20.82 20.82 0 0 1-18.1 0l-362.1-176.75a34.8 34.8 0 0 0-8.23-2.8V272.9a48.29 48.29 0 0 1 48.29-48.29z m662.18 574.76H180.91a48.27 48.27 0 0 1-48.29-48.29V388.21l340 166a89.56 89.56 0 0 0 78.69 0l340-165.95V751.1a48.29 48.29 0 0 1-48.22 48.29z" p-id="8889" fill="#b8b8b8"></path></svg>