<svg xmlns="http://www.w3.org/2000/svg" viewBox="0 0 861.96 187.54"><defs><style>.cls-1{fill:#fff;}</style></defs><title>资源 4</title><g id="图层_2" data-name="图层 2"><g id="图层_1-2" data-name="图层 1"><path class="cls-1" d="M553.91,89.22H517.8V130c0,2.29,0,10.88-.83,13.07-2.4,6-8,9.93-15,8.24A13.57,13.57,0,0,1,491.15,138c-.13-14.69,0-48.83,0-48.83l-35.7,0s0,34.48.08,49.49a49.1,49.1,0,0,0,44.76,48.51c25.52,2.15,53.1-15.52,53.59-41.08C554,141,553.91,89.22,553.91,89.22Z"/><path class="cls-1" d="M397.51,89.3a48.74,48.74,0,0,0-48.57,49.51c.18,26.52,22.36,48.42,48.91,48.31a48.91,48.91,0,1,0-.34-97.82Zm.65,62.08a13.35,13.35,0,0,1-13.74-13,13.71,13.71,0,0,1,13.25-13.63A13.28,13.28,0,0,1,411,138.13,13,13,0,0,1,398.16,151.38Zm23.42-12.8c-3-.07-2.15-2.71-2.24-4.52A15.9,15.9,0,0,0,414,122.42c-1.42-1.25-2.81-2.67-1.08-4.48s3.26-.36,4.6.85a20.65,20.65,0,0,1,6.91,14.69C424.28,136,424.69,138.66,421.58,138.58Zm14,6c-3.31-.26-1.94-3.48-2.08-5.59,0-.49,0-1,0-1.47-.14-11.08-4.56-20.15-12.84-27.44-1.46-1.29-4.24-2.42-2-5s3.95,0,5.38,1.19c10,8.63,14.82,19.63,14.57,32.79C438.53,141.27,439.3,144.89,435.58,144.6Z"/><rect class="cls-1" x="643.22" y="27.25" width="0.37" height="0.03"/><path class="cls-1" d="M643.22,27.25v0h.37v0Z"/><polygon class="cls-1" points="592.79 132.22 592.79 187.52 562.48 187.52 562.48 187.19 592.72 187.19 592.72 132.22 592.79 132.22"/><path class="cls-1" d="M285.27,27.71c-23.91.71-39.93,14.65-43.42,38.32-3.43,23.26,6,43.93,29.74,51.92,6.33,2.12,12.59,4.46,18.91,6.61,3.92,1.34,7.55,3.1,10.38,6.2,6.09,6.67,3.89,16.33-4.51,19.66a25.43,25.43,0,0,1-9.59,1.65c-16.15,0-54.4,0-54.4,0L232.59,0H189L0,187.19H54L196.85,42V152.07L104,151.89l6,35.3s123.79.35,184,0c23.51-.14,41.76-15.8,45.64-38.82,3.79-22.4-2.92-43.19-28.55-52.27-6.91-2.44-13.93-4.56-20.92-6.76a20.13,20.13,0,0,1-7.79-3.92c-4.28-3.85-5.85-8.66-4.31-14.15s5.78-8.53,11.29-9c3.23-.27,270.3,0,273,0h0V187.19h30.29v-55h.07l50.36-.08,5.14-30.2-55.5.09V62.27H662.6l.13,95.09v30.17c49.93,0,104.7-.13,104.7-.13l5.13-30.2-79.43.16V63.2L815.34,187.41H862V27.26H831.38V157.54L699.84,27.26Z"/></g></g></svg>